<?xml version="1.0" encoding="utf-8"?>
<?xml-stylesheet type="text/css" href="../css/style.css"?>
<!-- Generator: Adobe Illustrator 22.0.1, SVG Export Plug-In . SVG Version: 6.00 Build 0)  -->
<svg version="1.1" id="invision-icon" xmlns="http://www.w3.org/2000/svg" xmlns:xlink="http://www.w3.org/1999/xlink" x="0px" y="0px"
	 viewBox="0 0 2500 2500" style="enable-background:new 0 0 2500 2500;" xml:space="preserve">
<path d="M2273.4,0H226.6C101.5,0,0,101.5,0,226.6v2046.7C0,2398.5,101.5,2500,226.6,2500h2046.7c125.2,0,226.6-101.5,226.6-226.6
	V226.6C2500,101.5,2398.5,0,2273.4,0z M835.5,485.6c83.1,0,152.7,65.1,152.7,150.4c0,85.4-69.6,150.5-152.7,150.5
	s-152.7-65.1-152.7-150.5C682.8,550.8,752.4,485.6,835.5,485.6z M1857.2,1925.2c-155,0-229.1-92-229.1-217.8
	c0-35.9,4.5-74.1,15.7-112.3l74.1-265c9-29.2,11.2-56.1,11.2-80.8c0-85.3-51.7-137-134.7-137c-105.6,0-175.2,75.8-211.1,221.7
	l-143.8,576.6H988.1l45.1-181.2C959.3,1850.8,856.6,1926,730,1926c-152.7,0-224.6-88-224.6-220.5c0-33.6,4.5-74.9,13.5-113h0
	l114.5-467.9H456l53.9-198.9h426.7l-168.5,668.2c-11.2,42.7-15.7,78.1-15.7,102.8c0,42.7,21,55.2,53.9,62.6
	c20,4.5,179.6,1.3,266.5-191.8l110.6-443h-179.7l53.9-198.9h384l-49.4,225.8c67.4-125.8,202.1-245.3,334.6-245.3
	c141.5,0,258.3,100.8,258.3,293.9c0,49.4-6.7,103.2-24.7,163.8l-71.9,258.2c-6.7,27-11.2,49.4-11.2,69.7c0,44.9,18,67.3,51.7,67.3
	c33.7,0,76.4-24.8,125.8-161.7l98.8,38.1C2095.3,1839.9,1989.7,1925.2,1857.2,1925.2z"/>
</svg>
